<mxfile host="app.diagrams.net" modified="2023-10-10T06:55:33.891Z" agent="Mozilla/5.0 (Windows NT 10.0; Win64; x64) AppleWebKit/537.36 (KHTML, like Gecko) Chrome/117.0.0.0 Safari/537.36" etag="pr1sC0IAn7298Pfzc68q" version="22.0.4" type="github">
  <diagram name="Page-1" id="DgOoJcB8yQZerMkLO4jx">
    <mxGraphModel dx="1434" dy="750" grid="1" gridSize="10" guides="1" tooltips="1" connect="1" arrows="1" fold="1" page="1" pageScale="1" pageWidth="850" pageHeight="1100" math="0" shadow="0">
      <root>
        <mxCell id="0" />
        <mxCell id="1" parent="0" />
        <mxCell id="H4QClJGzwdKo-fOb0byx-3" style="edgeStyle=orthogonalEdgeStyle;rounded=0;orthogonalLoop=1;jettySize=auto;html=1;" edge="1" parent="1" source="H4QClJGzwdKo-fOb0byx-1" target="H4QClJGzwdKo-fOb0byx-2">
          <mxGeometry relative="1" as="geometry" />
        </mxCell>
        <mxCell id="H4QClJGzwdKo-fOb0byx-23" style="edgeStyle=orthogonalEdgeStyle;rounded=0;orthogonalLoop=1;jettySize=auto;html=1;" edge="1" parent="1" source="H4QClJGzwdKo-fOb0byx-1" target="H4QClJGzwdKo-fOb0byx-11">
          <mxGeometry relative="1" as="geometry">
            <Array as="points">
              <mxPoint x="250" y="110" />
              <mxPoint x="250" y="110" />
            </Array>
          </mxGeometry>
        </mxCell>
        <mxCell id="H4QClJGzwdKo-fOb0byx-1" value="Client" style="rounded=1;whiteSpace=wrap;html=1;" vertex="1" parent="1">
          <mxGeometry x="80" y="60" width="120" height="60" as="geometry" />
        </mxCell>
        <mxCell id="H4QClJGzwdKo-fOb0byx-5" style="edgeStyle=orthogonalEdgeStyle;rounded=0;orthogonalLoop=1;jettySize=auto;html=1;entryX=0;entryY=0.5;entryDx=0;entryDy=0;" edge="1" parent="1" source="H4QClJGzwdKo-fOb0byx-2" target="H4QClJGzwdKo-fOb0byx-4">
          <mxGeometry relative="1" as="geometry">
            <Array as="points">
              <mxPoint x="140" y="610" />
              <mxPoint x="380" y="610" />
            </Array>
          </mxGeometry>
        </mxCell>
        <mxCell id="H4QClJGzwdKo-fOb0byx-14" value="" style="edgeStyle=orthogonalEdgeStyle;rounded=0;orthogonalLoop=1;jettySize=auto;html=1;" edge="1" parent="1" source="H4QClJGzwdKo-fOb0byx-2" target="H4QClJGzwdKo-fOb0byx-13">
          <mxGeometry relative="1" as="geometry" />
        </mxCell>
        <mxCell id="H4QClJGzwdKo-fOb0byx-2" value="API Getwaya" style="rounded=1;whiteSpace=wrap;html=1;" vertex="1" parent="1">
          <mxGeometry x="80" y="330" width="120" height="60" as="geometry" />
        </mxCell>
        <mxCell id="H4QClJGzwdKo-fOb0byx-7" value="" style="edgeStyle=orthogonalEdgeStyle;rounded=0;orthogonalLoop=1;jettySize=auto;html=1;" edge="1" parent="1" source="H4QClJGzwdKo-fOb0byx-4" target="H4QClJGzwdKo-fOb0byx-6">
          <mxGeometry relative="1" as="geometry" />
        </mxCell>
        <mxCell id="H4QClJGzwdKo-fOb0byx-4" value="Command API&amp;nbsp;&lt;br&gt;Service" style="rounded=1;whiteSpace=wrap;html=1;" vertex="1" parent="1">
          <mxGeometry x="380" y="570" width="120" height="60" as="geometry" />
        </mxCell>
        <mxCell id="H4QClJGzwdKo-fOb0byx-9" value="" style="edgeStyle=orthogonalEdgeStyle;rounded=0;orthogonalLoop=1;jettySize=auto;html=1;" edge="1" parent="1" source="H4QClJGzwdKo-fOb0byx-6" target="H4QClJGzwdKo-fOb0byx-8">
          <mxGeometry relative="1" as="geometry" />
        </mxCell>
        <mxCell id="H4QClJGzwdKo-fOb0byx-20" value="Aggregator&lt;br&gt;" style="edgeLabel;html=1;align=center;verticalAlign=middle;resizable=0;points=[];" vertex="1" connectable="0" parent="H4QClJGzwdKo-fOb0byx-9">
          <mxGeometry x="-0.0714" y="-1" relative="1" as="geometry">
            <mxPoint as="offset" />
          </mxGeometry>
        </mxCell>
        <mxCell id="H4QClJGzwdKo-fOb0byx-12" value="" style="edgeStyle=orthogonalEdgeStyle;rounded=0;orthogonalLoop=1;jettySize=auto;html=1;" edge="1" parent="1" source="H4QClJGzwdKo-fOb0byx-6" target="H4QClJGzwdKo-fOb0byx-11">
          <mxGeometry relative="1" as="geometry">
            <Array as="points">
              <mxPoint x="790" y="110" />
            </Array>
          </mxGeometry>
        </mxCell>
        <mxCell id="H4QClJGzwdKo-fOb0byx-19" value="" style="edgeStyle=orthogonalEdgeStyle;rounded=0;orthogonalLoop=1;jettySize=auto;html=1;" edge="1" parent="1" source="H4QClJGzwdKo-fOb0byx-6" target="H4QClJGzwdKo-fOb0byx-18">
          <mxGeometry relative="1" as="geometry">
            <Array as="points">
              <mxPoint x="640" y="330" />
            </Array>
          </mxGeometry>
        </mxCell>
        <mxCell id="H4QClJGzwdKo-fOb0byx-21" value="Read Data Generator&lt;br&gt;" style="edgeLabel;html=1;align=center;verticalAlign=middle;resizable=0;points=[];" vertex="1" connectable="0" parent="H4QClJGzwdKo-fOb0byx-19">
          <mxGeometry x="0.0235" y="2" relative="1" as="geometry">
            <mxPoint as="offset" />
          </mxGeometry>
        </mxCell>
        <mxCell id="H4QClJGzwdKo-fOb0byx-6" value="MicroService Engine" style="whiteSpace=wrap;html=1;rounded=1;" vertex="1" parent="1">
          <mxGeometry x="740" y="300" width="120" height="60" as="geometry" />
        </mxCell>
        <mxCell id="H4QClJGzwdKo-fOb0byx-8" value="Write MongoDB&amp;nbsp;" style="whiteSpace=wrap;html=1;rounded=1;" vertex="1" parent="1">
          <mxGeometry x="1000" y="290" width="120" height="80" as="geometry" />
        </mxCell>
        <mxCell id="H4QClJGzwdKo-fOb0byx-11" value="MeiliSerarch Engine" style="whiteSpace=wrap;html=1;rounded=1;" vertex="1" parent="1">
          <mxGeometry x="410" y="80" width="120" height="60" as="geometry" />
        </mxCell>
        <mxCell id="H4QClJGzwdKo-fOb0byx-13" value="Query Api Service" style="whiteSpace=wrap;html=1;rounded=1;" vertex="1" parent="1">
          <mxGeometry x="365" y="330" width="115" height="50" as="geometry" />
        </mxCell>
        <mxCell id="H4QClJGzwdKo-fOb0byx-18" value="Read MongoDb" style="whiteSpace=wrap;html=1;rounded=1;" vertex="1" parent="1">
          <mxGeometry x="600" y="400" width="120" height="60" as="geometry" />
        </mxCell>
        <mxCell id="H4QClJGzwdKo-fOb0byx-22" value="" style="endArrow=classic;html=1;rounded=0;entryX=0;entryY=0.5;entryDx=0;entryDy=0;exitX=1;exitY=1;exitDx=0;exitDy=0;" edge="1" parent="1" source="H4QClJGzwdKo-fOb0byx-13" target="H4QClJGzwdKo-fOb0byx-18">
          <mxGeometry width="50" height="50" relative="1" as="geometry">
            <mxPoint x="400" y="410" as="sourcePoint" />
            <mxPoint x="450" y="360" as="targetPoint" />
          </mxGeometry>
        </mxCell>
      </root>
    </mxGraphModel>
  </diagram>
</mxfile>
